<svg width="32" height="29" viewBox="0 0 32 29" fill="none" xmlns="http://www.w3.org/2000/svg">
<path d="M25.0467 15.1298L17.9335 12.7478L15.3133 6.2964C15.1581 5.91438 14.8774 5.58468 14.5089 5.35179C14.1405 5.11891 13.7021 4.99404 13.2529 4.99404C12.8037 4.99404 12.3654 5.11891 11.9969 5.35179C11.6285 5.58468 11.3478 5.91438 11.1926 6.2964L8.55583 12.7478L1.43708 15.1224C1.01554 15.263 0.651737 15.5174 0.39476 15.8513C0.137783 16.1852 0 16.5824 0 16.9895C0 17.3966 0.137783 17.7939 0.39476 18.1278C0.651737 18.4617 1.01554 18.7161 1.43708 18.8567L8.55583 21.2463L11.1761 27.6976C11.3312 28.0797 11.612 28.4094 11.9804 28.6422C12.3488 28.8751 12.7872 29 13.2364 29C13.6856 29 14.124 28.8751 14.4924 28.6422C14.8608 28.4094 15.1416 28.0797 15.2967 27.6976L17.9335 21.2463L25.0522 18.8717C25.4738 18.7311 25.8376 18.4767 26.0946 18.1428C26.3515 17.8089 26.4893 17.4116 26.4893 17.0045C26.4893 16.5974 26.3515 16.2002 26.0946 15.8663C25.8376 15.5324 25.4738 15.278 25.0522 15.1373L25.0467 15.1298ZM16.6923 19.5241C16.5426 19.5741 16.4066 19.653 16.2937 19.7552C16.1809 19.8575 16.0938 19.9808 16.0387 20.1165L13.2447 26.9765L10.4562 20.1215C10.4011 19.9843 10.3135 19.8598 10.1996 19.7566C10.0858 19.6534 9.94833 19.574 9.79699 19.5241L2.2328 16.997L9.79699 14.47C9.94833 14.42 10.0858 14.3407 10.1996 14.2375C10.3135 14.1343 10.4011 14.0097 10.4562 13.8726L13.2447 7.01752L16.0331 13.8726C16.0883 14.0083 16.1754 14.1315 16.2882 14.2338C16.4011 14.3361 16.5371 14.4149 16.6868 14.465L24.2565 16.997L16.6923 19.5241ZM17.6577 3.9993C17.6577 3.73413 17.7739 3.47982 17.9808 3.29232C18.1877 3.10481 18.4683 2.99947 18.7609 2.99947H20.9674V0.999825C20.9674 0.734655 21.0837 0.480345 21.2906 0.292842C21.4975 0.105338 21.7781 0 22.0707 0C22.3633 0 22.6439 0.105338 22.8508 0.292842C23.0577 0.480345 23.174 0.734655 23.174 0.999825V2.99947H25.3805C25.6731 2.99947 25.9537 3.10481 26.1606 3.29232C26.3675 3.47982 26.4837 3.73413 26.4837 3.9993C26.4837 4.26447 26.3675 4.51878 26.1606 4.70628C25.9537 4.89379 25.6731 4.99912 25.3805 4.99912H23.174V6.99877C23.174 7.26394 23.0577 7.51825 22.8508 7.70576C22.6439 7.89326 22.3633 7.9986 22.0707 7.9986C21.7781 7.9986 21.4975 7.89326 21.2906 7.70576C21.0837 7.51825 20.9674 7.26394 20.9674 6.99877V4.99912H18.7609C18.4683 4.99912 18.1877 4.89379 17.9808 4.70628C17.7739 4.51878 17.6577 4.26447 17.6577 3.9993ZM32 9.99825C32 10.2634 31.8838 10.5177 31.6769 10.7052C31.47 10.8927 31.1893 10.9981 30.8967 10.9981H29.7935V11.9979C29.7935 12.2631 29.6773 12.5174 29.4704 12.7049C29.2635 12.8924 28.9828 12.9977 28.6902 12.9977C28.3976 12.9977 28.117 12.8924 27.9101 12.7049C27.7032 12.5174 27.587 12.2631 27.587 11.9979V10.9981H26.4837C26.1911 10.9981 25.9105 10.8927 25.7036 10.7052C25.4967 10.5177 25.3805 10.2634 25.3805 9.99825C25.3805 9.73308 25.4967 9.47877 25.7036 9.29127C25.9105 9.10376 26.1911 8.99842 26.4837 8.99842H27.587V7.9986C27.587 7.73343 27.7032 7.47912 27.9101 7.29162C28.117 7.10411 28.3976 6.99877 28.6902 6.99877C28.9828 6.99877 29.2635 7.10411 29.4704 7.29162C29.6773 7.47912 29.7935 7.73343 29.7935 7.9986V8.99842H30.8967C31.1893 8.99842 31.47 9.10376 31.6769 9.29127C31.8838 9.47877 32 9.73308 32 9.99825Z" fill="#9333EA"/>
</svg>
